PathFileType	4	(X/Y/Z)	C:/Users/beibeiliu/ov580/test_trc/User1\sequence.30_training_dense_right.trc
DataRate	CameraRate	NumFrames	NumMarkers	Units	OrigDataRate	OrigDataStartFrame	OrigNumFrames
120	120	18	19	mm	120	171	227
Frame#	Time	ThumbCMC			ThumbMCP			ThumbIP			ThumbTip			IndexMCP			IndexPIP			IndexTip			MiddleMCP			MiddlePIP			MiddleTip			RingMCP			RingPIP			RingTip			PinkyMCP			PinkyPIP			PinkyTip			BackHand1			BackHand2			BackHand3	
		X0	Y0	Z0	X1	Y1	Z1	X2	Y2	Z2	X3	Y3	Z3	X4	Y4	Z4	X5	Y5	Z5	X6	Y6	Z6	X7	Y7	Z7	X8	Y8	Z8	X9	Y9	Z9	X10	Y10	Z10	X11	Y11	Z11	X12	Y12	Z12	X13	Y13	Z13	X14	Y14	Z14	X15	Y15	Z15	X16	Y16	Z16	X17	Y17	Z17	X18	Y18	Z18	
170	1.41667	217.438	-2.52415	85.652	232.311	19.1602	67.3639	241.869	28.0259	40.2266	243.626	38.704	25.1082	209.213	-9.94912	-0.436212	189.887	6.97082	-17.303	161.696	30.5897	-10.3447	205.347	-44.578	-5.4615	208.044	-38.8558	-36.4716	202.904	-38.3438	-66.2449	191.194	-61.0031	7.16735	195.155	-69.5606	-17.0828	197.968	-76.1668	-46.0747	162.561	-67.9525	24.3204	163.585	-79.5086	6.68205	168.629	-98.2376	-7.98762	184.825	-59.2074	57.8544	186.546	-59.5193	92.9444	210.154	-38.6524	77.1938	
171	1.425	216.719	3.24102	86.3319	224.121	20.8957	67.2214	231.895	29.9201	39.2109	236.359	43.1163	22.1343	207.553	-5.70098	-1.38374	183.236	9.3438	-16.0124	156.196	26.2532	-4.42308	209.514	-40.763	-8.26906	207.679	-38.4358	-35.9976	205.437	-36.1628	-65.616	193.894	-63.1126	8.33593	203.663	-67.6664	-20.0488	206.377	-75.6978	-46.3211	171.973	-71.9824	23.8772	174.113	-79.7978	12.1543	187.032	-98.1268	-3.9306	191.267	-57.7248	60.5621	189.484	-60.2696	91.4314	216.309	-33.6341	77.905	
172	1.43333	208.98	6.52224	86.4929	215.024	27.434	65.9377	223.521	39.9874	39.3161	225.718	49.8256	19.9259	206.796	-0.566441	1.57207	178.368	12.8719	-12.8838	147.29	21.7071	-0.123685	215.083	-32.5206	-6.13221	213.254	-27.9804	-35.5082	206.723	-29.8685	-62.7857	205.465	-58.8516	6.10244	211.861	-64.5312	-15.9115	219.369	-65.7245	-42.7155	180.295	-73.8481	28.7664	189.74	-83.3844	12.2917	207.286	-92.1813	-2.53565	198.328	-56.8953	59.8953	197.1	-57.6036	92.1438	216.18	-31.648	78.5922	
173	1.44167	199.432	8.85715	89.1524	201.262	29.9936	66.9381	209.308	45.019	41.6411	210.42	57.9347	22.2348	199.802	5.24301	1.03561	171.843	7.39964	-11.4992	139.601	6.90958	1.88805	216.53	-29.0247	-5.56519	214.367	-22.7219	-32.4971	207.482	-22.9173	-63.4709	214.07	-53.5182	9.05871	223.992	-54.3093	-15.8009	232.05	-58.1708	-42.7437	193.676	-73.0542	29.6555	205.794	-76.6814	14.7948	226.46	-84.2917	0.961572	204.1	-52.7346	63.0445	204.405	-56.8212	95.6725	218.215	-20.3359	79.1457	
174	1.45	189.346	11.7707	91.8676	188.922	32.5124	65.8733	190.968	45.7631	45.8453	191.004	62.0611	26.2694	192.793	7.12437	2.19336	164.763	5.42894	-9.92549	132.151	-3.23021	3.00091	216.243	-23.303	-2.84988	211.549	-18.9464	-28.969	206.686	-15.1563	-61.0549	220.599	-46.8198	10.5542	233.059	-46.5543	-17.4849	241.418	-48.8858	-40.1634	205.53	-68.3095	29.126	217.834	-72.4083	14.9467	239.225	-73.8176	-1.50616	212.082	-48.8299	63.152	207.671	-54.8817	96.1715	213.482	-16.4803	81.6698	
175	1.45833	178.769	10.4185	91.3556	173.961	31.4313	67.2359	175.436	46.6681	44.7711	171.332	55.201	28.1493	186.493	6.15716	4.91546	158.668	-1.10834	-10.5967	127.41	-12.5882	1.63127	213.042	-13.9372	-1.33072	208.425	-11.2006	-33.1244	202.338	-16.3971	-58.65	224.635	-39.2251	10.1445	236.047	-35.24	-13.9098	242.988	-35.0547	-35.1938	215.922	-64.4599	28.0497	227.789	-63.6926	14.3358	247.811	-65.568	4.18657	214.15	-46.5891	65.9629	209.017	-47.4862	97.5143	211.019	-12.4025	81.3161	
176	1.46667	168.369	6.08423	92.8376	160.746	26.6455	69.4296	159.559	43.2128	45.1511	155.256	49.9908	26.4626	178.091	3.49509	3.76264	151.932	-5.36126	-10.6838	126.979	-22.7174	-1.40804	208.187	-10.679	-3.60075	202.101	-8.373	-30.982	195.577	-13.9348	-59.7061	224.455	-28.3574	11.0729	233.603	-25.2541	-8.74212	245.794	-24.834	-36.044	219.441	-58.1031	30.7084	232.515	-61.7137	19.0207	252.018	-57.96	7.30033	214.096	-39.7066	61.8392	211.669	-43.7711	98.864	201.851	-8.86723	81.8174	
177	1.475	157.964	1.94492	95.145	145.729	21.0889	71.5859	146.844	31.828	44.228	135.615	45.8057	28.3077	168.184	4.92137	4.89244	147.334	-16.2056	-10.9367	125.896	-35.3735	-0.695249	202.727	-8.64061	1.13867	193.598	-5.5366	-30.937	186.85	-12.7731	-61.9644	223.62	-28.3146	13.5728	233.669	-21.4242	-8.65847	242.278	-16.2928	-33.4941	221.544	-56.1855	33.0342	233.733	-51.1448	20.4871	255.37	-44.1538	5.52868	212.323	-34.4649	68.0184	212.531	-41.0177	99.8415	195.751	-5.6447	85.4127	
178	1.48333	152.051	-6.18266	95.5736	135.775	12.9094	69.1186	128.891	25.7491	46.0405	120.309	33.2602	27.0994	162.211	1.42346	7.92859	144.832	-20.5542	-11.5869	123.662	-46.1239	0.856101	194.066	-6.48845	0.968497	187.029	-7.15484	-27.6255	177.201	-17.6819	-61.6678	218.347	-19.5704	11.3266	229.603	-16.913	-9.13414	237.053	-11.4158	-33.1518	220.364	-47.3028	33.1345	234.958	-43.3775	20.2198	254.881	-36.0317	10.492	208.716	-30.4362	65.3672	212.317	-36.4755	97.2519	189.477	-8.14244	82.9409	
179	1.49167	145.664	-9.19359	94.3305	127.363	2.40523	72.8764	119.261	11.4547	50.635	109.461	18.1705	28.6142	155.814	-5.71947	3.69481	137.107	-25.8359	-10.2598	128.06	-54.1107	1.59818	187.421	-5.13677	1.82758	181.973	-10.9418	-27.0806	171.655	-22.8244	-56.8093	215.353	-18.1732	12.5358	220.961	-7.90893	-11.5241	229.403	-3.11143	-36.5078	221.927	-40.1976	29.9345	233.5	-35.9966	20.3483	254.53	-24.9816	9.92432	207.322	-28.4504	66.1973	209.517	-34.5303	99.0118	182.574	-6.42386	84.8385	
180	1.5	141.38	-16.4495	96.3371	118.136	-5.24209	77.8568	110.152	4.94706	50.6866	95.2761	10.4098	31.0166	150.815	-7.02828	9.38756	136.486	-33.9215	-10.0953	123.309	-60.8497	3.36547	179.274	-6.12602	-0.130536	171.239	-11.6503	-28.0794	163.864	-27.9717	-56.5382	205.091	-12.4064	13.4538	216.62	-4.46648	-14.0267	221.105	0.597833	-34.6396	217.838	-37.9807	33.3845	232.804	-30.5617	20.7629	250.72	-18.8962	11.262	205.688	-23.7408	63.1311	207.44	-30.0455	101.206	177.014	-6.67439	86.4015	
181	1.50833	136.255	-18.9403	95.962	113.182	-9.26848	76.9272	102.312	-2.22417	55.0572	91.3356	0.724992	32.3081	141.953	-10.1083	9.37818	131.456	-38.316	-8.48792	124.609	-65.4826	5.45954	174.855	-8.03701	2.0987	165.953	-16.1836	-28.2533	153.62	-33.4434	-55.2347	204.173	-13.6261	13.8649	210.164	-4.81729	-13.6364	210.016	3.02877	-37.1674	219.128	-34.8437	31.3484	229.495	-26.6438	18.6269	242.77	-12.7309	14.1285	196.925	-20.6355	67.6837	201.741	-25.5668	98.648	171.219	-9.79338	86.0449	
182	1.51667	131.721	-20.4649	99.0719	110.194	-15.2085	80.8408	96.5631	-4.15875	51.8261	85.7485	-4.42408	30.6935	136.049	-13.6652	6.96975	130.248	-41.3342	-8.39632	126.923	-69.3986	6.66231	167.945	-8.69593	3.33255	162.913	-19.6612	-25.7665	147.347	-40.5514	-53.1525	195.913	-11.2774	14.3352	203.681	-3.56435	-14.5366	207.165	-0.30245	-40.5772	216.747	-30.8325	31.0787	225.949	-23.2305	18.4524	238.293	-8.45685	14.5219	195.35	-17.4657	64.4027	201.555	-26.8745	99.9538	166.274	-6.58752	86.8188	
183	1.525	132.79	-24.0551	98.5913	107.498	-17.1895	78.9099	93.2961	-9.09265	55.8033	81.8628	-9.48372	32.2903	136.873	-15.0229	10.8461	125.712	-42.4965	-6.78423	122.387	-72.2393	6.38997	166.56	-12.2463	1.78321	157.221	-24.7884	-28.3787	147.071	-50.7922	-49.2483	194.744	-10.7285	8.49769	197.397	-4.95088	-18.1367	198.251	-2.90722	-42.1603	214.7	-33.0773	33.438	225.762	-23.2166	20.3639	238.277	-3.23081	11.5348	193.753	-17.4595	65.4292	198.971	-24.9041	100.556	162.386	-7.54122	85.1684	
184	1.53333	129.028	-22.8352	97.4403	107.649	-18.3998	77.4324	92.3232	-12.3356	54.042	83.2248	-14.4685	32.579	130.203	-19.315	9.06824	124.541	-48.378	-7.45132	125.017	-76.9497	6.81984	161.976	-15.4948	-1.11912	155.526	-30.2027	-25.2734	142.907	-59.5703	-46.9249	190.188	-14.3417	9.68343	191.44	-8.58437	-18.9174	195.759	-9.53913	-45.6759	209.701	-31.175	31.7563	225.843	-23.7202	21.2411	237.811	-7.3267	13.7537	189.558	-18.5428	65.5358	193.859	-20.9891	97.6445	160.798	-9.83695	84.9774	
185	1.54167	129.81	-25.6029	99.042	103.358	-20.5733	81.4455	93.5168	-16.7143	55.1307	80.992	-18.223	31.8272	129.91	-22.5264	6.96382	124.636	-47.2575	-8.74948	125.402	-82.2647	7.62101	156.121	-18.1784	-3.03013	151.635	-38.0588	-27.4729	142.659	-64.9914	-41.2567	189.995	-16.2698	4.2209	193.558	-14.6486	-17.2012	191.687	-13.9022	-45.814	208.151	-31.0515	31.5556	223.043	-21.66	18.484	235.582	-8.18181	12.8853	188.489	-17.3324	62.4878	195.033	-22.9427	100.322	158.833	-9.39768	86.2865	
186	1.55	129.314	-26.0524	99.4701	103.191	-21.046	78.9864	93.0162	-17.2643	51.6101	79.3676	-19.45	31.3913	130.18	-22.358	9.0713	124.144	-50.7421	-9.20591	125.239	-82.3548	3.36963	157.859	-20.5044	-0.604654	150.735	-38.485	-25.22	142.1	-73.6308	-40.6435	191.837	-18.8647	4.26781	193.285	-19.2089	-19.659	192.255	-20.0917	-46.4469	214.165	-31.291	30.8318	220.409	-22.7564	16.7698	232.317	-6.5249	11.1997	188.437	-18.2055	64.694	196.09	-20.0227	98.1803	158.395	-7.41046	80.3013	
187	1.55833	129.773	-26.6248	99.0603	106.193	-23.3261	75.9883	90.3572	-20.3218	54.0519	76.3849	-21.7728	32.8048	134.894	-24.5231	7.59151	124.647	-54.175	-11.4784	128.833	-84.6383	-1.82174	160.667	-24.6247	-1.26655	150.216	-47.3239	-27.0216	145.377	-80.3688	-36.6344	191.057	-20.914	3.11461	191.56	-22.2233	-20.0351	194.27	-26.7189	-49.7197	215.894	-31.7439	29.4089	226.524	-24.2159	17.8497	237.32	-5.93275	10.6442	193.155	-17.9974	64.7811	195.134	-18.5266	95.4325	158.917	-8.81558	79.529	
